<svg width="50" height="50" viewBox="0 0 50 50" fill="none" xmlns="http://www.w3.org/2000/svg">
<path d="M15.5 17.25C15.5 16.8358 15.8358 16.5 16.25 16.5H16.8083C17.7587 16.5 18.3278 17.139 18.6532 17.733C18.8702 18.1289 19.0271 18.5882 19.1498 19.004C19.1831 19.0013 19.2167 19 19.2508 19H31.7481C32.5783 19 33.1778 19.7944 32.9502 20.5928L31.1224 27.0019C30.7856 28.1832 29.7062 28.9978 28.4779 28.9978H22.5298C21.2913 28.9978 20.2056 28.1699 19.8778 26.9756L19.1173 24.2045L17.8587 19.9558L17.8567 19.9483C17.701 19.3805 17.5549 18.85 17.3377 18.4537C17.1269 18.0688 16.9588 18 16.8083 18H16.25C15.8358 18 15.5 17.6642 15.5 17.25ZM22 34C23.1046 34 24 33.1046 24 32C24 30.8954 23.1046 30 22 30C20.8954 30 20 30.8954 20 32C20 33.1046 20.8954 34 22 34ZM29 34C30.1046 34 31 33.1046 31 32C31 30.8954 30.1046 30 29 30C27.8954 30 27 30.8954 27 32C27 33.1046 27.8954 34 29 34Z" fill="#242424"/>
</svg>
