<svg width="50" height="50" viewBox="0 0 50 50" fill="none" xmlns="http://www.w3.org/2000/svg">
<path d="M25 14.999C30.5237 14.999 35.0015 19.4768 35.0015 25.0005C35.0015 30.5242 30.5237 35.0021 25 35.0021C19.4763 35.0021 14.9984 30.5242 14.9984 25.0005C14.9984 19.4768 19.4763 14.999 25 14.999ZM24.9962 23.2495C24.4833 23.2499 24.0609 23.6362 24.0035 24.1336L23.9968 24.2502L24.0004 29.7518L24.0072 29.8684C24.0653 30.3657 24.4882 30.7515 25.0011 30.7511C25.5139 30.7508 25.9363 30.3645 25.9938 29.8671L26.0004 29.7505L25.9968 24.2489L25.99 24.1323C25.9319 23.635 25.509 23.2492 24.9962 23.2495ZM25.0004 19.5C24.3092 19.5 23.7489 20.0603 23.7489 20.7515C23.7489 21.4427 24.3092 22.003 25.0004 22.003C25.6916 22.003 26.2519 21.4427 26.2519 20.7515C26.2519 20.0603 25.6916 19.5 25.0004 19.5Z" fill="#242424"/>
</svg>
