<svg width="50" height="50" viewBox="0 0 50 50" fill="none" xmlns="http://www.w3.org/2000/svg">
<path d="M30.7542 26.9999C31.9962 26.9999 33.003 28.0068 33.003 29.2488V30.1673C33.003 30.7406 32.8238 31.2996 32.4905 31.7661C30.9446 33.9294 28.4203 35.0011 25 35.0011C21.579 35.0011 19.0561 33.9289 17.5139 31.7646C17.1819 31.2987 17.0035 30.7408 17.0035 30.1688V29.2488C17.0035 28.0068 18.0104 26.9999 19.2524 26.9999H30.7542ZM25 15.0046C27.7614 15.0046 30 17.2432 30 20.0046C30 22.766 27.7614 25.0046 25 25.0046C22.2386 25.0046 20 22.766 20 20.0046C20 17.2432 22.2386 15.0046 25 15.0046Z" fill="#242424"/>
</svg>
